<?xml version="1.0" standalone="no"?>
<!DOCTYPE svg PUBLIC "-//W3C//DTD SVG 20010904//EN"
 "http://www.w3.org/TR/2001/REC-SVG-20010904/DTD/svg10.dtd">
<svg version="1.0" xmlns="http://www.w3.org/2000/svg"
 width="260.000000pt" height="260.000000pt" viewBox="0 0 260.000000 260.000000"
 preserveAspectRatio="xMidYMid meet">
<metadata>
Created by potrace 1.14, written by Peter Selinger 2001-2017
</metadata>
<g transform="translate(0.000000,260.000000) scale(0.100000,-0.100000)"
fill="#000000" stroke="none">
<path d="M1641 1744 c-119 -32 -228 -122 -277 -228 -82 -179 -40 -434 92 -555
134 -124 356 -151 531 -66 101 50 183 151 209 258 l6 27 -136 0 c-79 0 -136
-4 -136 -10 0 -5 -16 -25 -35 -43 -84 -81 -229 -64 -284 33 -68 122 -34 297
69 350 77 39 182 17 232 -50 l22 -30 133 0 133 0 -6 28 c-24 96 -114 206 -210
255 -94 47 -235 60 -343 31z"/>
<path d="M420 1300 l0 -450 125 0 125 0 2 197 3 197 140 -197 140 -197 153 0
152 0 -166 223 c-92 122 -171 227 -175 232 -5 7 59 99 157 228 l165 217 -145
0 -144 0 -138 -192 -139 -193 -3 193 -2 192 -125 0 -125 0 0 -450z"/>
</g>
</svg>
