<svg width="22" height="22" viewBox="0 0 22 22" fill="none" xmlns="http://www.w3.org/2000/svg">
<path d="M11.0259 8.171L12.4399 6.757L16.6829 11L12.4399 15.243L11.0259 13.828L12.8539 12L5.31689 12L5.31689 10L12.8539 10L11.0259 8.171Z" fill="white"/>
<path fill-rule="evenodd" clip-rule="evenodd" d="M18.778 3.222C23.074 7.518 23.074 14.482 18.778 18.778C14.482 23.074 7.518 23.074 3.222 18.778C-1.074 14.482 -1.074 7.518 3.222 3.222C7.518 -1.074 14.482 -1.074 18.778 3.222ZM17.364 4.636C18.1997 5.47173 18.8627 6.46389 19.315 7.55583C19.7673 8.64777 20.0001 9.8181 20.0001 11C20.0001 12.1819 19.7673 13.3522 19.315 14.4442C18.8627 15.5361 18.1997 16.5283 17.364 17.364C16.5283 18.1997 15.5361 18.8627 14.4442 19.315C13.3522 19.7673 12.1819 20.0001 11 20.0001C9.8181 20.0001 8.64777 19.7673 7.55583 19.315C6.46389 18.8627 5.47173 18.1997 4.636 17.364C2.94816 15.6762 1.99994 13.387 1.99994 11C1.99994 8.61304 2.94816 6.32384 4.636 4.636C6.32384 2.94816 8.61304 1.99994 11 1.99994C13.387 1.99994 15.6762 2.94816 17.364 4.636Z" fill="white"/>
</svg>
