<svg width="24" height="26" viewBox="0 0 24 26" fill="none" xmlns="http://www.w3.org/2000/svg">
<path d="M4.5 4.875C4.5 5.7038 5.29018 6.49866 6.6967 7.08471C8.10322 7.67076 10.0109 8 12 8C13.9891 8 15.8968 7.67076 17.3033 7.08471C18.7098 6.49866 19.5 5.7038 19.5 4.875C19.5 4.0462 18.7098 3.25134 17.3033 2.66529C15.8968 2.07924 13.9891 1.75 12 1.75C10.0109 1.75 8.10322 2.07924 6.6967 2.66529C5.29018 3.25134 4.5 4.0462 4.5 4.875Z" stroke="#2C2C2C" stroke-width="2.5" stroke-linecap="round" stroke-linejoin="round"/>
<path d="M19.5 4.875V10.6575C19.8629 10.4932 20.2706 10.4561 20.6572 10.5524C21.0437 10.6486 21.3864 10.8725 21.6298 11.1878C21.8733 11.5031 22.0031 11.8914 21.9984 12.2897C21.9937 12.688 21.8546 13.0731 21.6038 13.3825L21.4826 13.5175L19.5 15.5V20.5C19.5 22.5125 16.325 24.1562 12.3438 24.25H12C7.85755 24.25 4.50005 22.5712 4.50005 20.5V18L2.51755 16.0175C2.22435 15.7247 2.04334 15.3382 2.00616 14.9255C1.96897 14.5128 2.07797 14.1001 2.3141 13.7596C2.55024 13.4191 2.8985 13.1724 3.29805 13.0626C3.69761 12.9527 4.12305 12.9868 4.50005 13.1587V4.875M9.50005 13.625V15.5M14.5001 18V19.25" stroke="#2C2C2C" stroke-width="2.5" stroke-linecap="round" stroke-linejoin="round"/>
</svg>
