<svg width="28" height="28" viewBox="0 0 28 28" fill="none" xmlns="http://www.w3.org/2000/svg">
<path d="M20.9998 2.33334C21.6187 2.33334 22.2122 2.57918 22.6498 3.01676C23.0873 3.45435 23.3332 4.04784 23.3332 4.66668V19.8217C23.3332 20.0177 23.2888 20.1973 23.2013 20.3723L22.5655 21.644C22.4844 21.8061 22.4422 21.9848 22.4422 22.1661C22.4422 22.3473 22.4844 22.5261 22.5655 22.6882L23.199 23.9575C23.2924 24.1353 23.3383 24.3342 23.3323 24.5349C23.3263 24.7356 23.2686 24.9314 23.1647 25.1033C23.0609 25.2751 22.9145 25.4173 22.7396 25.516C22.5647 25.6147 22.3673 25.6666 22.1665 25.6667H8.1665C7.23825 25.6667 6.34801 25.2979 5.69163 24.6416C5.03525 23.9852 4.6665 23.0949 4.6665 22.1667V5.83334C4.6665 4.90509 5.03525 4.01485 5.69163 3.35847C6.34801 2.70209 7.23825 2.33334 8.1665 2.33334H20.9998ZM20.3092 21H8.1665C7.86914 21.0003 7.58313 21.1142 7.36691 21.3183C7.15068 21.5225 7.02056 21.8015 7.00314 22.0983C6.98571 22.3952 7.08229 22.6875 7.27315 22.9155C7.464 23.1435 7.73473 23.2901 8.03 23.3252L8.1665 23.3333H20.3092C20.0727 22.6644 20.045 21.9394 20.2298 21.2543L20.3092 21ZM20.9998 4.66668H8.1665C7.88075 4.66671 7.60494 4.77163 7.3914 4.96151C7.17786 5.1514 7.04144 5.41305 7.008 5.69684L6.99984 5.83334V18.865C7.2915 18.7623 7.60184 18.697 7.92267 18.6748L8.1665 18.6667H20.9998V4.66668ZM16.3332 8.16668C16.6305 8.16701 16.9165 8.28087 17.1328 8.485C17.349 8.68913 17.4791 8.96812 17.4965 9.26497C17.514 9.56182 17.4174 9.85412 17.2265 10.0821C17.0357 10.3102 16.7649 10.4567 16.4697 10.4918L16.3332 10.5H11.6665C11.3691 10.4997 11.0831 10.3858 10.8669 10.1817C10.6507 9.97756 10.5206 9.69856 10.5031 9.40172C10.4857 9.10487 10.5823 8.81257 10.7731 8.58454C10.964 8.35651 11.2347 8.20996 11.53 8.17484L11.6665 8.16668H16.3332Z" fill="url(#paint0_linear_240_10)"/>
<defs>
<linearGradient id="paint0_linear_240_10" x1="23.3332" y1="19.6173" x2="4.14873" y2="19.0221" gradientUnits="userSpaceOnUse">
<stop stop-color="#E30E00"/>
<stop offset="1" stop-color="#FF392D"/>
</linearGradient>
</defs>
</svg>
